PathFileType	4	(x/y/z)	S01_PSF_T17.trc
DataRate	CameraRate	NumFrames	NumMarkers	Units	OrigDataRate	OrigDataStartFrame	OrigNumFrames
240	240	4	51	mm	240	1	363
Frame#	Time	Sternum			R.Acromium			L.Acromium			Top.Head			R.ASIS			L.ASIS			R.PSIS			L.PSIS			R.Great.Tro			L.Great.Tro			R.Iliac.Crest			L.Iliac.Crest			V.Sacral			R.Thigh.Upper.Post			R.Thigh.Lower.Ant			R.Thigh.Lower.Post			R.Thigh.Upper.Ant			R.Knee.Lat			R.Knee.Med			R.Shank.Upper.Post			R.Shank.Lower.Ant			R.Shank.Lower.Post			R.Shank.Upper.Ant			R.Ankle.Lat			R.Ankle.Med			R.Heel.Upper			R.Heel.Med			R.Heel.Lat			R.Toe.Lat			R.Toe.Med			R.Toe.Tip			L.Thigh.Upper.Post			L.Thigh.Lower.Ant			L.Thigh.Lower.Post			L.Thigh.Upper.Ant			L.Knee.Lat			L.Knee.Med			L.Shank.Upper.Post			L.Shank.Lower.Ant			L.Shank.Lower.Post			L.Shank.Upper.Ant			L.Ankle.Lat			L.Ankle.Med			L.Heel.Upper			L.Heel.Med			L.Heel.Lat			L.Toe.Lat			L.Toe.Med			L.Toe.Tip			Cervical.Spine			Back			
		X1	Y1	Z1	X2	Y2	Z2	X3	Y3	Z3	X4	Y4	Z4	X5	Y5	Z5	X6	Y6	Z6	X7	Y7	Z7	X8	Y8	Z8	X9	Y9	Z9	X10	Y10	Z10	X11	Y11	Z11	X12	Y12	Z12	X13	Y13	Z13	X14	Y14	Z14	X15	Y15	Z15	X16	Y16	Z16	X17	Y17	Z17	X18	Y18	Z18	X19	Y19	Z19	X20	Y20	Z20	X21	Y21	Z21	X22	Y22	Z22	X23	Y23	Z23	X24	Y24	Z24	X25	Y25	Z25	X26	Y26	Z26	X27	Y27	Z27	X28	Y28	Z28	X29	Y29	Z29	X30	Y30	Z30	X31	Y31	Z31	X32	Y32	Z32	X33	Y33	Z33	X34	Y34	Z34	X35	Y35	Z35	X36	Y36	Z36	X37	Y37	Z37	X38	Y38	Z38	X39	Y39	Z39	X40	Y40	Z40	X41	Y41	Z41	X42	Y42	Z42	X43	Y43	Z43	X44	Y44	Z44	X45	Y45	Z45	X46	Y46	Z46	X47	Y47	Z47	X48	Y48	Z48	X49	Y49	Z49	X50	Y50	Z50	X51	Y51	Z51	

1	0	NaN	NaN	NaN	-1345.8	1538.8	417.66	-1359.6	1539	88.305	-1346	1855.2	232.08	NaN	NaN	NaN	NaN	NaN	NaN	-1511.1	1058.2	305.09	-1504.3	1057.4	202.12	-1371.5	975.56	496.87	-1344.9	979.42	71.73	-1378.5	1127.6	475.41	-1358.4	1105.9	71.284	-1518.8	1021.1	249.64	-1317.9	673.1	500.33	-1229	613.1	503.55	-1297.5	585.44	494.03	-1250	701.7	508.09	-1284.4	531.54	503.22	-1233.6	516.78	355.34	-1421.9	464.32	492.65	NaN	NaN	NaN	-1479.9	423.78	474.43	-1388.8	407.84	481.1	-1628.6	298.22	420.15	NaN	NaN	NaN	-1670	334.24	341.94	-1678.4	303.66	312.06	-1705.2	316.61	371.09	-1645.7	149.88	467.05	NaN	NaN	NaN	NaN	NaN	NaN	-1316.2	691.85	102.91	-1218.1	640.58	113.2	-1290.4	606.75	125.87	-1254.5	725.7	88.826	-1222.6	533.81	126.75	-1215.6	545.23	266.91	-1269.6	392.77	106.56	-1205.9	305.97	138.6	-1266.3	314.14	110.48	-1208.4	381.2	129.14	-1283.6	103.88	146.93	-1260.9	115.23	247.92	-1355.4	73.051	192.43	-1344.8	48.68	225.95	-1346.1	47.744	163.74	-1133.4	42.642	136.78	-1112.3	50.693	259.17	-1047.4	61.599	209.26	-1448.9	1595.3	255.27	-1531.9	1284.9	281.01
2	0.0041667	NaN	NaN	NaN	-1341.7	1539.9	417.5	-1354.8	1540.1	88.145	-1340.9	1856.2	231.9	NaN	NaN	NaN	NaN	NaN	NaN	-1506.7	1059.4	305.11	-1499.9	1058.4	202.12	-1366.7	977.03	496.9	-1340.8	980.12	71.645	-1374.1	1129.3	475.1	-1353.8	1107	71.246	-1514.4	1022.2	249.71	-1310.5	674.68	500.52	-1221.7	615.36	503.58	-1289.4	587.23	494.09	-1243	703.86	508.15	-1275.2	533.18	503.1	-1224.9	519.29	355.22	-1412.8	465.14	492.26	NaN	NaN	NaN	-1470.3	424	474.15	-1379.1	409	481.01	-1617.6	296.68	420.09	NaN	NaN	NaN	-1659.6	332.23	341.94	-1667.5	301.55	311.98	-1694.3	314.23	371.1	-1632.9	148.3	467.09	NaN	NaN	NaN	NaN	NaN	NaN	-1314.2	692.45	102.8	-1216.5	640.51	112.88	-1288.8	607.22	125.63	-1252.3	725.94	88.575	-1221.5	533.82	126.41	-1213.7	545.16	266.61	-1269	392.84	106.32	-1205.5	305.77	138.25	-1265.9	314.29	110.36	-1207.7	381.22	128.74	-1283.6	103.91	146.89	-1260.9	115.31	247.85	-1355.4	73.069	192.4	-1344.8	48.72	225.94	-1346.1	47.778	163.74	-1133.4	42.628	136.76	-1112.4	50.735	259.15	-1047.5	61.625	209.25	-1444.2	1596.3	254.97	-1527.3	1286	280.49
3	0.0083333	NaN	NaN	NaN	-1337.4	1541	417.34	-1349.8	1541.3	87.982	-1335.7	1857.2	231.72	NaN	NaN	NaN	NaN	NaN	NaN	-1502.1	1060.7	305.16	-1495.3	1059.5	202.15	-1361.6	978.55	496.93	-1336.5	980.85	71.562	-1369.5	1131	474.78	-1348.9	1108.2	71.209	-1509.8	1023.4	249.81	-1302.8	676.32	500.72	-1214.1	617.7	503.6	-1280.9	589.09	494.14	-1235.7	706.1	508.21	-1265.7	534.89	502.97	-1215.8	521.89	355.09	-1403.3	465.94	491.87	NaN	NaN	NaN	-1460.2	424.17	473.87	-1369.1	410.16	480.91	-1606	295.01	420.03	NaN	NaN	NaN	-1648.8	330.06	341.96	-1656.2	299.26	311.9	-1682.9	311.64	371.13	-1619.5	146.59	467.12	NaN	NaN	NaN	NaN	NaN	NaN	-1312.1	693.06	102.69	-1214.8	640.44	112.54	-1287.3	607.7	125.38	-1249.9	726.19	88.316	-1220.4	533.83	126.05	-1211.8	545.08	266.29	-1268.4	392.91	106.07	-1205.1	305.57	137.89	-1265.5	314.43	110.23	-1207	381.24	128.33	-1283.6	103.94	146.85	-1260.9	115.39	247.77	-1355.4	73.088	192.38	-1344.8	48.762	225.93	-1346.2	47.813	163.73	-1133.4	42.613	136.74	-1112.4	50.779	259.12	-1047.5	61.651	209.24	-1439.3	1597.3	254.67	-1522.6	1287.2	279.96
4	0.0125	NaN	NaN	NaN	-1332.9	1542.1	417.18	-1344.6	1542.5	87.818	-1330.3	1858.2	231.56	NaN	NaN	NaN	NaN	NaN	NaN	-1497.3	1061.9	305.23	-1490.6	1060.6	202.2	-1356.4	980.09	496.97	-1332.1	981.58	71.48	-1364.7	1132.8	474.45	-1344	1109.3	71.173	-1505.1	1024.6	249.93	-1294.9	678	500.92	-1206.2	620.11	503.58	-1272.3	591.01	494.19	-1228.3	708.4	508.24	-1255.9	536.66	502.82	-1206.6	524.56	354.95	-1393.5	466.7	491.49	NaN	NaN	NaN	-1449.8	424.28	473.59	-1358.7	411.31	480.81	-1594.1	293.19	419.97	NaN	NaN	NaN	-1637.5	327.71	341.99	-1644.5	296.8	311.84	-1671.1	308.84	371.18	-1605.4	144.74	467.14	NaN	NaN	NaN	NaN	NaN	NaN	-1309.9	693.7	102.58	-1213	640.37	112.2	-1285.6	608.19	125.13	-1247.5	726.45	88.051	-1219.3	533.84	125.68	-1209.9	545	265.96	-1267.7	392.98	105.81	-1204.7	305.38	137.52	-1265	314.57	110.08	-1206.2	381.26	127.91	-1283.6	103.97	146.81	-1260.8	115.48	247.68	-1355.4	73.106	192.35	-1344.8	48.804	225.91	-1346.2	47.846	163.72	-1133.4	42.598	136.72	-1112.4	50.824	259.09	-1047.5	61.679	209.23	-1434.2	1598.4	254.37	-1517.6	1288.3	279.42
